<?xml version="1.0" encoding="UTF-8" standalone="no"?><!DOCTYPE svg PUBLIC "-//W3C//DTD SVG 1.1//EN" "http://www.w3.org/Graphics/SVG/1.1/DTD/svg11.dtd"><svg width="100%" height="100%" viewBox="0 0 16 13" version="1.1" xmlns="http://www.w3.org/2000/svg" xmlns:xlink="http://www.w3.org/1999/xlink" xml:space="preserve" xmlns:serif="http://www.serif.com/" style="fill-rule:evenodd;clip-rule:evenodd;stroke-linejoin:round;stroke-miterlimit:2;"><path d="M9.77,6.6l4.23,-4.543l0,7.838l-4.23,-3.295Zm-3.375,0.177l1.605,1.723l1.605,-1.723l3.29,4.223l-9.79,0l3.29,-4.223Zm-3.639,-4.777l10.488,0l-5.244,3.938l-5.244,-3.938Zm3.474,4.6l-4.23,3.295l0,-7.838l4.23,4.543Zm8.27,-6.6l-13,0c-0.825,0 -1.5,0.675 -1.5,1.5l0,10c0,0.825 0.675,1.5 1.5,1.5l13,0c0.825,0 1.5,-0.675 1.5,-1.5l0,-10c0,-0.825 -0.675,-1.5 -1.5,-1.5" style="fill:#444;fill-rule:nonzero;"/></svg>