<?xml version="1.0" encoding="UTF-8" standalone="no"?><!DOCTYPE svg PUBLIC "-//W3C//DTD SVG 1.1//EN" "http://www.w3.org/Graphics/SVG/1.1/DTD/svg11.dtd"><svg width="100%" height="100%" viewBox="0 0 15 15" version="1.1" xmlns="http://www.w3.org/2000/svg" xmlns:xlink="http://www.w3.org/1999/xlink" xml:space="preserve" xmlns:serif="http://www.serif.com/" style="fill-rule:evenodd;clip-rule:evenodd;stroke-linejoin:round;stroke-miterlimit:2;"><path d="M12.096,12.096c-0.526,0.526 -1.128,0.952 -1.792,1.27c0.483,-0.643 0.886,-1.448 1.177,-2.366l1.498,0c-0.252,0.394 -0.547,0.761 -0.883,1.096m-10.075,-1.096l1.498,0c0.291,0.918 0.693,1.723 1.177,2.366c-0.665,-0.318 -1.267,-0.744 -1.792,-1.27c-0.336,-0.336 -0.631,-0.702 -0.883,-1.096m0.883,-8.096c0.526,-0.526 1.128,-0.952 1.792,-1.27c-0.483,0.643 -0.886,1.448 -1.177,2.366l-1.498,0c0.252,-0.394 0.547,-0.761 0.883,-1.096m10.075,1.096l-1.498,0c-0.291,-0.918 -0.693,-1.723 -1.177,-2.366c0.665,0.318 1.267,0.744 1.792,1.27c0.336,0.336 0.631,0.702 0.883,1.096m-0.989,3c-0.028,-0.697 -0.112,-1.368 -0.246,-2l1.758,0c0.267,0.639 0.427,1.309 0.479,2l-1.991,0Zm-3.99,3l0,-2l2.989,0c-0.029,0.69 -0.12,1.36 -0.27,2l-2.719,0Zm1.825,2.289c-0.336,0.561 -0.734,1.012 -1.149,1.304c-0.222,0.156 -0.447,0.268 -0.675,0.334l0,-2.927l2.426,0c-0.168,0.47 -0.369,0.901 -0.602,1.289m-2.825,-1.289l0,2.927c-0.228,-0.066 -0.454,-0.178 -0.675,-0.334c-0.415,-0.293 -0.813,-0.744 -1.149,-1.304c-0.233,-0.388 -0.434,-0.819 -0.602,-1.289l2.426,0Zm-2.989,-3l2.989,0l0,2l-2.719,0c-0.15,-0.64 -0.241,-1.31 -0.27,-2m-2.513,2c-0.266,-0.639 -0.427,-1.309 -0.479,-2l1.991,0c0.028,0.697 0.112,1.368 0.246,2l-1.758,0Zm5.502,-5l0,2l-2.989,0c0.029,-0.69 0.12,-1.36 0.27,-2l2.719,0Zm-1.824,-2.289c0.336,-0.561 0.734,-1.012 1.149,-1.304c0.222,-0.156 0.447,-0.268 0.675,-0.334l0,2.927l-2.426,0c0.168,-0.47 0.369,-0.901 0.601,-1.289l0.001,0Zm2.824,1.289l0,-2.927c0.228,0.066 0.454,0.178 0.675,0.334c0.415,0.293 0.813,0.744 1.149,1.304c0.233,0.388 0.434,0.819 0.601,1.289l-2.426,0l0.001,0Zm2.719,1c0.15,0.64 0.241,1.31 0.27,2l-2.989,0l0,-2l2.719,0Zm-7.463,0c-0.134,0.632 -0.219,1.303 -0.246,2l-1.991,0c0.052,-0.691 0.213,-1.361 0.479,-2l1.758,0Zm8.488,5c0.134,-0.632 0.219,-1.303 0.246,-2l1.991,0c-0.052,0.691 -0.213,1.361 -0.479,2l-1.758,0Zm-4.244,-10c-4.142,0 -7.5,3.358 -7.5,7.5c0,4.142 3.358,7.5 7.5,7.5c4.142,0 7.5,-3.358 7.5,-7.5c0,-4.142 -3.358,-7.5 -7.5,-7.5" style="fill:#444;fill-rule:nonzero;"/></svg>